<svg xmlns="http://www.w3.org/2000/svg" viewBox="0 0 128 128" role="img" aria-label="Vue Component Navigator icon">
  <defs>
    <linearGradient id="bg" x1="14" y1="10" x2="114" y2="118" gradientUnits="userSpaceOnUse">
      <stop offset="0" stop-color="#102a35"/>
      <stop offset="1" stop-color="#07171f"/>
    </linearGradient>
    <linearGradient id="vue" x1="31" y1="28" x2="91" y2="100" gradientUnits="userSpaceOnUse">
      <stop offset="0" stop-color="#4ade9b"/>
      <stop offset="1" stop-color="#20b486"/>
    </linearGradient>
    <filter id="shadow" x="-20%" y="-20%" width="140%" height="140%">
      <feDropShadow dx="0" dy="7" stdDeviation="6" flood-color="#000" flood-opacity=".36"/>
    </filter>
  </defs>

  <rect width="128" height="128" fill="url(#bg)"/>
  <path d="M18 82c18-18 29-24 46-24 17 0 28-6 46-24" fill="none" stroke="#193f4b" stroke-width="5" stroke-linecap="round"/>
  <path d="M23 39h12M23 39l9-9M23 39l9 9M105 89H93M105 89l-9-9M105 89l-9 9" fill="none" stroke="#2dd4bf" stroke-width="5" stroke-linecap="round" stroke-linejoin="round"/>

  <g filter="url(#shadow)">
    <path d="M27 28h20l17 29 17-29h20L64 94 27 28z" fill="url(#vue)"/>
    <path d="M47 28h17l9 16 9-16h17L64 87 30 28h17l17 30 17-30h-8L64 45 55 28z" fill="#e6fff4" opacity=".95"/>
  </g>

  <circle cx="31" cy="39" r="8" fill="#34d399" stroke="#e6fff4" stroke-width="3"/>
  <circle cx="64" cy="58" r="9" fill="#38bdf8" stroke="#e6fff4" stroke-width="3"/>
  <circle cx="97" cy="88" r="8" fill="#34d399" stroke="#e6fff4" stroke-width="3"/>
  <path d="M39 43l16 9M72 64l17 16" fill="none" stroke="#e6fff4" stroke-width="4" stroke-linecap="round"/>
</svg>
